<svg width="145" height="160" xmlns="http://www.w3.org/2000/svg">
  <g fill="none" fill-rule="evenodd">
    <path d="M.92217207 58.7998267C-6.97551276-2.95277296 36.9712332 12.8547889 89.9808342 1.97834927 148.944337-10.1197042 152.821358 34.8822191 137.056708 92.9180563 119.687337 156.861501 56.3997766 180.840035 18.3681027 139.461474-6.79835571 112.080301 8.0658586 114.656856.92217207 58.7998267z" fill="#FFDDE1"/>
    <path d="M83.0760584 87.6741462c-1.3388905-.4743715-2.7792158-.7326499-4.278756-.7326499-7.0777209 0-12.8362683 5.753852-12.8362683 12.8258017 0 1.498317.2584892 2.937468.7332477 4.275267H47.1000001c-2.8166523 0-5.1000001-2.283348-5.1000001-5.1V68.1000001C42 65.2833478 44.2833478 63 47.1000001 63h30.8760582c2.8166523 0 5.1000001 2.2833478 5.1000001 5.1000001v19.5741461zM47.1230049 66.4202138c-.9388841 0-1.7.7611159-1.7 1.7v30.8021375c0 .9388842.7611159 1.6999997 1.7 1.6999997h5.1460097V66.4202138h-5.1460097zm31.7132634 22.2313894C84.9917782 88.6516032 90 93.6645205 90 99.8258016 90 105.987083 84.9917782 111 78.8362683 111c-6.15551 0-11.1637318-5.012917-11.1637318-11.1741984 0-6.1612811 5.0082218-11.1741984 11.1637318-11.1741984zm3.4349943 12.0337518c.4740293 0 .8587486-.38508.8587486-.8595534 0-.4744736-.3847193-.8595537-.8587486-.8595537h-2.5762457v-2.5786612c0-.4744736-.3847194-.8595537-.8587486-.8595537-.4740293 0-.8587486.3850801-.8587486.8595537v2.5786612h-2.5762458c-.4740292 0-.8587486.3850801-.8587486.8595537 0 .4744734.3847194.8595534.8587486.8595534h2.5762458v2.578662c0 .474473.3847193.859553.8587486.859553.4740292 0 .8587486-.38508.8587486-.859553v-2.578662h2.5762457z" fill="#FE4064"/>
  </g>
</svg>
